<?xml version="1.0" encoding="utf-8"?>
<!-- Generator: Adobe Illustrator 15.0.0, SVG Export Plug-In . SVG Version: 6.00 Build 0)  -->
<!DOCTYPE svg PUBLIC "-//W3C//DTD SVG 1.1//EN" "http://www.w3.org/Graphics/SVG/1.1/DTD/svg11.dtd">
<svg version="1.1" id="Layer_1" xmlns="http://www.w3.org/2000/svg" xmlns:xlink="http://www.w3.org/1999/xlink" x="0px" y="0px"
	 width="3628.35px" height="3628.35px" viewBox="0 0 3628.35 3628.35" style="enable-background:new 0 0 3628.35 3628.35;"
	 xml:space="preserve">
<g style="opacity:0.75;">
	<defs>
		<filter id="Adobe_OpacityMaskFilter" filterUnits="userSpaceOnUse" x="245.308" y="3122.053" width="3350.794" height="351.729">
			<feFlood  style="flood-color:white;flood-opacity:1" result="back"/>
			<feBlend  in="SourceGraphic" in2="back" mode="normal"/>
		</filter>
	</defs>
	<mask maskUnits="userSpaceOnUse" x="245.308" y="3122.053" width="3350.794" height="351.729" id="SVGID_1_">
		<g style="filter:url(#Adobe_OpacityMaskFilter);">
		</g>
	</mask>
	<g style="mask:url(#SVGID_1_);">
		<polygon points="3473.607,3122.053 245.482,3298.49 245.308,3473.782 3596.103,3290.639 		"/>
	</g>
</g>
<g>
	<g>
		
			<rect x="285.179" y="285.175" transform="matrix(-0.9985 0.0546 -0.0546 -0.9985 3722.5637 3524.6475)" style="fill:#FFF7E8;" width="3055.954" height="3055.954"/>
		<path d="M3251.517,208.469l166.322,3043.043L374.796,3417.834L208.474,374.792L3251.517,208.469 M3259.417,199.655l-8.356,0.457
			L208.017,366.434l-8.357,0.457l0.457,8.357l166.322,3043.043l0.457,8.356l8.357-0.456l3043.042-166.322l8.357-0.457l-0.457-8.357
			L3259.874,208.012L3259.417,199.655L3259.417,199.655z"/>
	</g>
	
		<rect x="1249.53" y="290.874" transform="matrix(0.9985 -0.0546 0.0546 0.9985 -40.9684 97.1174)" style="opacity:0.05;" width="1016.357" height="1015.614"/>
	
		<rect x="2319.821" y="1249.525" transform="matrix(0.9985 -0.0546 0.0546 0.9985 -91.7136 156.9392)" style="opacity:0.05;" width="1015.613" height="1016.358"/>
	
		<rect x="290.878" y="1360.421" transform="matrix(0.9985 -0.0546 0.0546 0.9985 -100.7879 46.3727)" style="opacity:0.05;" width="1015.614" height="1016.357"/>
	
		<rect x="1360.425" y="2319.817" transform="matrix(0.9985 -0.0546 0.0546 0.9985 -151.5327 106.1934)" style="opacity:0.05;" width="1016.358" height="1015.613"/>
	
		<line style="fill:none;stroke:#000000;stroke-width:1.0462;stroke-miterlimit:10;" x1="356.32" y1="3079.801" x2="3399.363" y2="2913.479"/>
	
		<line style="fill:none;stroke:#000000;stroke-width:1.0462;stroke-miterlimit:10;" x1="337.845" y1="2741.768" x2="3380.888" y2="2575.445"/>
	
		<line style="fill:none;stroke:#000000;stroke-width:6.2771;stroke-miterlimit:10;" x1="319.369" y1="2403.734" x2="3362.412" y2="2237.412"/>
	
		<line style="fill:none;stroke:#000000;stroke-width:1.0462;stroke-miterlimit:10;" x1="300.893" y1="2065.703" x2="3343.936" y2="1899.379"/>
	
		<line style="fill:none;stroke:#000000;stroke-width:1.0462;stroke-miterlimit:10;" x1="282.377" y1="1726.925" x2="3325.419" y2="1560.603"/>
	
		<line style="fill:none;stroke:#000000;stroke-width:6.2771;stroke-miterlimit:10;" x1="263.901" y1="1388.892" x2="3306.943" y2="1222.569"/>
	
		<line style="fill:none;stroke:#000000;stroke-width:1.0462;stroke-miterlimit:10;" x1="245.425" y1="1050.858" x2="3288.469" y2="884.536"/>
	
		<line style="fill:none;stroke:#000000;stroke-width:1.0462;stroke-miterlimit:10;" x1="226.949" y1="712.825" x2="3269.992" y2="546.502"/>
	
		<line style="fill:none;stroke:#000000;stroke-width:1.0462;stroke-miterlimit:10;" x1="2913.483" y1="226.945" x2="3079.806" y2="3269.987"/>
	
		<line style="fill:none;stroke:#000000;stroke-width:1.0462;stroke-miterlimit:10;" x1="2575.449" y1="245.42" x2="2741.771" y2="3288.463"/>
	
		<line style="fill:none;stroke:#000000;stroke-width:6.2771;stroke-miterlimit:10;" x1="2237.417" y1="263.896" x2="2403.739" y2="3306.939"/>
	
		<line style="fill:none;stroke:#000000;stroke-width:1.0462;stroke-miterlimit:10;" x1="1899.384" y1="282.372" x2="2065.706" y2="3325.415"/>
	
		<line style="fill:none;stroke:#000000;stroke-width:1.0462;stroke-miterlimit:10;" x1="1560.606" y1="300.888" x2="1726.929" y2="3343.932"/>
	
		<line style="fill:none;stroke:#000000;stroke-width:6.2771;stroke-miterlimit:10;" x1="1222.574" y1="319.364" x2="1388.896" y2="3362.407"/>
	
		<line style="fill:none;stroke:#000000;stroke-width:1.0462;stroke-miterlimit:10;" x1="884.54" y1="337.84" x2="1050.863" y2="3380.883"/>
	
		<line style="fill:none;stroke:#000000;stroke-width:1.0462;stroke-miterlimit:10;" x1="546.506" y1="356.316" x2="712.829" y2="3399.357"/>
	<g>
		<path d="M2053.925,525.347l-1.176,0.064l-1.734-31.732l1.175-0.064c13.868-0.758,25.88-13.909,25.032-29.422
			c-0.835-15.278-14.209-27.042-28.077-26.283l-1.175,0.064l-4.228-77.331l58.762-3.212l1.748,31.966l-26.796,1.465l1.246,22.8
			c17.763,10.109,29.368,28.334,30.485,48.784C2110.999,495.587,2085.421,523.625,2053.925,525.347z"/>
	</g>
	<g>
		<path d="M2096.047,860.49l-34.552,1.889l48.652-132.085l-47.01,2.569l-1.747-31.967l95.194-5.203L2096.047,860.49z"/>
	</g>
	<g>
		<path d="M2420.854,846.508l-1.176,0.064l-1.734-31.731l1.176-0.064c13.867-0.758,25.878-13.909,25.03-29.422
			c-0.835-15.278-13.973-27.055-29.251-26.22l17.499-46.456l-31.027,1.696l-1.747-31.967l79.916-4.368l-24.095,63.791
			c12.134,10.653,19.562,25.806,20.437,41.789C2477.693,816.761,2452.351,844.786,2420.854,846.508z"/>
	</g>
	<g>
		<path d="M2498.149,1148.61l1.696,31.026l-31.967,1.747l-1.696-31.026l-59.937,3.276l84.233-145.347l5.923,108.356l25.385-1.388
			l1.747,31.967L2498.149,1148.61z M2463.382,1099.117l-12.578,20.019l13.632-0.745L2463.382,1099.117z"/>
	</g>
	<g>
		<path d="M462.492,1973.437l-34.552,1.889l48.652-132.086l-47.009,2.569l-1.747-31.965l95.194-5.204L462.492,1973.437z"/>
	</g>
	<g>
		<path d="M463.042,2318.396l-1.176,0.064l-1.734-31.732l1.176-0.064c13.867-0.758,25.878-13.909,25.031-29.422
			c-0.835-15.278-13.973-27.056-29.251-26.22l17.5-46.456l-31.026,1.696l-1.747-31.967l79.916-4.368l-24.096,63.79
			c12.134,10.653,19.563,25.807,20.437,41.79C519.881,2288.648,494.537,2316.675,463.042,2318.396z"/>
	</g>
	<g>
		<path d="M830.688,2297.828c-30.086,1.645-55.867-21.464-57.512-51.55c-0.886-16.219,5.368-31.177,16.111-41.665
			c-6.052-7.214-9.857-16.436-10.422-26.777c-1.362-24.915,17.747-46.235,42.662-47.597c24.915-1.362,46.233,17.748,47.596,42.663
			c0.565,10.342-2.212,19.923-7.442,27.754c11.822,9.255,19.669,23.442,20.556,39.661
			C883.882,2270.403,860.774,2296.184,830.688,2297.828z M826.474,2220.732c-12.458,0.681-22.013,11.341-21.332,23.799
			c0.694,12.691,11.354,22.246,23.811,21.565c12.457-0.681,22.012-11.341,21.318-24.032
			C849.59,2229.606,838.931,2220.052,826.474,2220.732z M823.274,2162.207c-7.287,0.398-13.077,6.608-12.678,13.895
			c0.411,7.521,6.843,13.063,14.13,12.665c7.286-0.398,13.076-6.608,12.665-14.13
			C836.993,2167.351,830.561,2161.809,823.274,2162.207z"/>
	</g>
	<g>
		<path d="M830.485,2635.757l27.906-76.022c-22.928-1.104-41.61-19.414-42.882-42.684c-1.362-24.915,17.747-46.234,42.897-47.609
			c24.915-1.361,46.234,17.747,47.596,42.662c0.36,6.582-0.704,13.005-2.968,19.022l-37.997,102.742L830.485,2635.757z
			 M861.371,2527.981c7.521-0.411,13.076-6.608,12.665-14.13c-0.398-7.286-6.595-12.841-14.117-12.43
			c-7.287,0.398-12.842,6.595-12.443,13.881C847.887,2522.824,854.084,2528.379,861.371,2527.981z"/>
	</g>
	<g>
		<path d="M1155.67,2621.754l-1.175,0.064l-1.735-31.732l1.175-0.064c13.868-0.758,25.88-13.909,25.032-29.422
			c-0.835-15.278-14.209-27.042-28.077-26.284l-1.175,0.064l-4.227-77.329l58.762-3.212l1.748,31.966l-26.795,1.464l1.246,22.8
			c17.762,10.109,29.367,28.335,30.485,48.784C1212.745,2591.993,1187.167,2620.032,1155.67,2621.754z"/>
	</g>
	<g>
		<path d="M1208.287,2956.324l-7.824-143.145l30.759-23.841l9.032,165.238L1208.287,2956.324z"/>
	</g>
	<g>
		<path d="M1532.132,2851.631c22.94,1.339,41.61,19.414,42.882,42.685c1.362,24.915-17.747,46.234-42.897,47.608
			c-24.915,1.362-46.233-17.747-47.596-42.662c-0.359-6.582,0.704-13.006,2.968-19.022l37.998-102.741l34.551-1.889
			L1532.132,2851.631z M1528.917,2883.396c-7.287,0.398-12.829,6.831-12.43,14.118c0.398,7.286,6.608,13.075,13.895,12.677
			c7.521-0.411,13.063-6.843,12.665-14.129C1542.636,2888.54,1536.439,2882.985,1528.917,2883.396z"/>
	</g>
	<g>
		<path d="M1573.539,3280.878c-30.086,1.645-55.867-21.465-57.511-51.551c-0.886-16.218,5.369-31.177,16.111-41.665
			c-6.052-7.214-9.857-16.436-10.422-26.777c-1.362-24.915,17.748-46.234,42.662-47.596c24.915-1.362,46.234,17.747,47.596,42.662
			c0.565,10.342-2.211,19.924-7.441,27.754c11.821,9.255,19.67,23.442,20.556,39.66
			C1626.734,3253.451,1603.625,3279.233,1573.539,3280.878z M1569.325,3203.782c-12.457,0.681-22.011,11.34-21.331,23.798
			c0.694,12.692,11.354,22.246,23.811,21.565c12.458-0.682,22.012-11.34,21.318-24.032
			C1592.442,3212.655,1581.782,3203.101,1569.325,3203.782z M1566.126,3145.256c-7.286,0.398-13.077,6.608-12.678,13.895
			c0.411,7.522,6.844,13.064,14.13,12.666c7.287-0.398,13.077-6.608,12.666-14.131
			C1579.845,3150.399,1573.412,3144.857,1566.126,3145.256z"/>
	</g>
	<g>
		<path d="M1714.188,540.145l35.588-95.066c1.23-3.368,1.73-7.167,1.524-10.928c-0.835-15.278-14.208-27.042-28.077-26.284
			l-1.175,0.064l-1.734-31.731l1.175-0.064c31.497-1.721,59.979,23.361,61.777,56.268c0.45,8.227-0.759,16.308-3.651,23.774
			l-18.285,49.328l36.197-1.979l1.747,31.966L1714.188,540.145z"/>
	</g>
	<g>
		<path d="M1873.587,3264.947l-1.176,0.064l-1.734-31.732l1.176-0.064c13.867-0.758,25.879-13.908,25.031-29.422
			c-0.836-15.277-13.974-27.055-29.252-26.219l17.499-46.457l-31.025,1.697l-1.747-31.967l79.916-4.369l-24.096,63.791
			c12.134,10.654,19.562,25.807,20.437,41.789C1930.427,3235.201,1905.083,3263.227,1873.587,3264.947z"/>
	</g>
	<g>
		<path d="M2807.073,1166.143c-30.086,1.645-55.868-21.464-57.513-51.55c-0.886-16.218,5.368-31.177,16.111-41.665
			c-6.053-7.213-9.856-16.435-10.422-26.777c-1.361-24.915,17.747-46.234,42.662-47.596s46.234,17.748,47.596,42.662
			c0.565,10.342-2.212,19.924-7.441,27.754c11.821,9.255,19.671,23.442,20.557,39.661
			C2860.268,1138.717,2837.159,1164.499,2807.073,1166.143z M2802.858,1089.048c-12.458,0.681-22.013,11.34-21.332,23.798
			c0.694,12.693,11.354,22.247,23.812,21.566c12.457-0.681,22.011-11.34,21.316-24.033
			C2825.975,1097.921,2815.315,1088.367,2802.858,1089.048z M2799.66,1030.521c-7.287,0.398-13.078,6.609-12.68,13.895
			c0.411,7.521,6.844,13.064,14.131,12.666c7.286-0.398,13.075-6.609,12.664-14.13
			C2813.377,1035.665,2806.945,1030.123,2799.66,1030.521z"/>
	</g>
	<g>
		<path d="M2807.275,1507.821l-1.176,0.064l-1.734-31.731l1.176-0.064c13.867-0.758,25.879-13.909,25.031-29.421
			c-0.836-15.278-14.209-27.043-28.076-26.285l-1.176,0.064l-4.227-77.33l58.762-3.212l1.747,31.966l-26.795,1.465l1.246,22.8
			c17.762,10.11,29.367,28.335,30.485,48.785C2864.35,1478.061,2838.771,1506.099,2807.275,1507.821z"/>
	</g>
	<g>
		<path d="M3122.594,1828.031l35.588-95.066c1.23-3.367,1.73-7.167,1.525-10.927c-0.835-15.278-14.209-27.042-28.076-26.284
			l-1.176,0.064l-1.735-31.732l1.176-0.064c31.496-1.722,59.979,23.362,61.777,56.269c0.449,8.227-0.758,16.309-3.65,23.775
			l-18.285,49.328l36.196-1.979l1.747,31.966L3122.594,1828.031z"/>
	</g>
	<g>
		<path d="M3131.452,1486.329l27.906-76.021c-22.929-1.104-41.61-19.414-42.883-42.685c-1.361-24.915,17.747-46.234,42.897-47.609
			c24.915-1.362,46.234,17.747,47.596,42.662c0.36,6.582-0.703,13.005-2.968,19.022l-37.997,102.742L3131.452,1486.329z
			 M3162.337,1378.554c7.521-0.411,13.077-6.608,12.666-14.131c-0.397-7.286-6.596-12.841-14.117-12.43
			c-7.286,0.398-12.841,6.595-12.443,13.881C3148.854,1373.397,3155.051,1378.952,3162.337,1378.554z"/>
	</g>
</g>
</svg>
